<mxfile host="app.diagrams.net" modified="2022-06-06T13:26:46.593Z" agent="5.0 (Windows NT 10.0; Win64; x64) AppleWebKit/537.36 (KHTML, like Gecko) Chrome/104.0.5098.0 Safari/537.36" etag="Y8Eev0zLpL6CTRXanDkf" version="19.0.0" type="github">
  <diagram id="xKVeLkCirl6FpFkGo_Dy" name="Page-1">
    <mxGraphModel dx="2125" dy="1893" grid="1" gridSize="10" guides="1" tooltips="1" connect="1" arrows="1" fold="1" page="1" pageScale="1" pageWidth="827" pageHeight="1169" math="0" shadow="0">
      <root>
        <mxCell id="0" />
        <mxCell id="1" parent="0" />
        <mxCell id="PD8uNonPkWToq5c_xBjs-1" value="Pastel" style="rounded=0;whiteSpace=wrap;html=1;" vertex="1" parent="1">
          <mxGeometry x="335" y="200" width="90" height="40" as="geometry" />
        </mxCell>
        <mxCell id="PD8uNonPkWToq5c_xBjs-2" value="Nombre" style="ellipse;whiteSpace=wrap;html=1;" vertex="1" parent="1">
          <mxGeometry x="400" y="310" width="110" height="30" as="geometry" />
        </mxCell>
        <mxCell id="PD8uNonPkWToq5c_xBjs-4" value="[Cantidad]" style="ellipse;whiteSpace=wrap;html=1;" vertex="1" parent="1">
          <mxGeometry x="250" y="310" width="110" height="30" as="geometry" />
        </mxCell>
        <mxCell id="PD8uNonPkWToq5c_xBjs-6" value="[Precio]" style="ellipse;whiteSpace=wrap;html=1;" vertex="1" parent="1">
          <mxGeometry x="180" y="260" width="110" height="30" as="geometry" />
        </mxCell>
        <mxCell id="PD8uNonPkWToq5c_xBjs-7" value="Id_Producto" style="ellipse;whiteSpace=wrap;html=1;fontStyle=4" vertex="1" parent="1">
          <mxGeometry x="450" y="260" width="110" height="30" as="geometry" />
        </mxCell>
        <mxCell id="PD8uNonPkWToq5c_xBjs-8" value="Tiene" style="rhombus;whiteSpace=wrap;html=1;" vertex="1" parent="1">
          <mxGeometry x="580" y="200" width="40" height="40" as="geometry" />
        </mxCell>
        <mxCell id="PD8uNonPkWToq5c_xBjs-10" value="Categoría" style="rounded=0;whiteSpace=wrap;html=1;" vertex="1" parent="1">
          <mxGeometry x="810" y="200" width="90" height="40" as="geometry" />
        </mxCell>
        <mxCell id="PD8uNonPkWToq5c_xBjs-12" value="Cumpleaños" style="ellipse;whiteSpace=wrap;html=1;" vertex="1" parent="1">
          <mxGeometry x="650" y="260" width="110" height="30" as="geometry" />
        </mxCell>
        <mxCell id="PD8uNonPkWToq5c_xBjs-13" value="Boda" style="ellipse;whiteSpace=wrap;html=1;" vertex="1" parent="1">
          <mxGeometry x="730" y="310" width="110" height="30" as="geometry" />
        </mxCell>
        <mxCell id="PD8uNonPkWToq5c_xBjs-14" value="Navidad" style="ellipse;whiteSpace=wrap;html=1;" vertex="1" parent="1">
          <mxGeometry x="960" y="260" width="110" height="30" as="geometry" />
        </mxCell>
        <mxCell id="PD8uNonPkWToq5c_xBjs-15" value="Bienvenida" style="ellipse;whiteSpace=wrap;html=1;" vertex="1" parent="1">
          <mxGeometry x="880" y="310" width="110" height="30" as="geometry" />
        </mxCell>
        <mxCell id="PD8uNonPkWToq5c_xBjs-16" value="Tiene" style="rhombus;whiteSpace=wrap;html=1;" vertex="1" parent="1">
          <mxGeometry x="360" y="360" width="40" height="40" as="geometry" />
        </mxCell>
        <mxCell id="PD8uNonPkWToq5c_xBjs-17" value="Tipo_Pastel" style="rounded=0;whiteSpace=wrap;html=1;" vertex="1" parent="1">
          <mxGeometry x="335" y="450" width="90" height="40" as="geometry" />
        </mxCell>
        <mxCell id="PD8uNonPkWToq5c_xBjs-19" value="Pastelero" style="rounded=0;whiteSpace=wrap;html=1;" vertex="1" parent="1">
          <mxGeometry x="335" y="40" width="90" height="40" as="geometry" />
        </mxCell>
        <mxCell id="PD8uNonPkWToq5c_xBjs-20" value="Trabajador" style="rounded=0;whiteSpace=wrap;html=1;" vertex="1" parent="1">
          <mxGeometry x="70" y="-160" width="90" height="40" as="geometry" />
        </mxCell>
        <mxCell id="PD8uNonPkWToq5c_xBjs-22" value="Hace" style="rhombus;whiteSpace=wrap;html=1;" vertex="1" parent="1">
          <mxGeometry x="360" y="120" width="40" height="40" as="geometry" />
        </mxCell>
        <mxCell id="PD8uNonPkWToq5c_xBjs-23" value="Vendedor" style="rounded=0;whiteSpace=wrap;html=1;" vertex="1" parent="1">
          <mxGeometry x="-190" y="40" width="90" height="40" as="geometry" />
        </mxCell>
        <mxCell id="PD8uNonPkWToq5c_xBjs-24" value="Encargado_local" style="rounded=0;whiteSpace=wrap;html=1;" vertex="1" parent="1">
          <mxGeometry x="70" y="30" width="90" height="40" as="geometry" />
        </mxCell>
        <mxCell id="PD8uNonPkWToq5c_xBjs-25" value="Son" style="triangle;whiteSpace=wrap;html=1;rotation=90;" vertex="1" parent="1">
          <mxGeometry x="100" y="-60" width="30" height="50" as="geometry" />
        </mxCell>
        <mxCell id="PD8uNonPkWToq5c_xBjs-26" value="Propietario" style="rounded=0;whiteSpace=wrap;html=1;" vertex="1" parent="1">
          <mxGeometry x="-100" y="-280" width="90" height="40" as="geometry" />
        </mxCell>
        <mxCell id="PD8uNonPkWToq5c_xBjs-35" value="Id_vendedor" style="ellipse;whiteSpace=wrap;html=1;fontStyle=4" vertex="1" parent="1">
          <mxGeometry x="-320" y="120" width="110" height="30" as="geometry" />
        </mxCell>
        <mxCell id="PD8uNonPkWToq5c_xBjs-36" value="Nombre" style="ellipse;whiteSpace=wrap;html=1;" vertex="1" parent="1">
          <mxGeometry x="-320" y="170" width="110" height="30" as="geometry" />
        </mxCell>
        <mxCell id="PD8uNonPkWToq5c_xBjs-38" value="Id_Encargado" style="ellipse;whiteSpace=wrap;html=1;fontStyle=4" vertex="1" parent="1">
          <mxGeometry x="-45" y="110" width="110" height="30" as="geometry" />
        </mxCell>
        <mxCell id="PD8uNonPkWToq5c_xBjs-39" value="Nombre" style="ellipse;whiteSpace=wrap;html=1;" vertex="1" parent="1">
          <mxGeometry x="150" y="110" width="110" height="30" as="geometry" />
        </mxCell>
        <mxCell id="PD8uNonPkWToq5c_xBjs-41" value="Tiene" style="rhombus;whiteSpace=wrap;html=1;" vertex="1" parent="1">
          <mxGeometry x="-165" y="240" width="40" height="40" as="geometry" />
        </mxCell>
        <mxCell id="PD8uNonPkWToq5c_xBjs-42" value="Ventas" style="rounded=0;whiteSpace=wrap;html=1;" vertex="1" parent="1">
          <mxGeometry x="-190" y="360" width="90" height="40" as="geometry" />
        </mxCell>
        <mxCell id="PD8uNonPkWToq5c_xBjs-46" value="Id_vendedor" style="ellipse;whiteSpace=wrap;html=1;fontStyle=4" vertex="1" parent="1">
          <mxGeometry x="-420" y="450" width="110" height="30" as="geometry" />
        </mxCell>
        <mxCell id="PD8uNonPkWToq5c_xBjs-47" value="Nro_ventas" style="ellipse;whiteSpace=wrap;html=1;" vertex="1" parent="1">
          <mxGeometry x="-200" y="500" width="110" height="30" as="geometry" />
        </mxCell>
        <mxCell id="PD8uNonPkWToq5c_xBjs-49" value="Tiene" style="rhombus;whiteSpace=wrap;html=1;" vertex="1" parent="1">
          <mxGeometry x="-10" y="360" width="40" height="40" as="geometry" />
        </mxCell>
        <mxCell id="PD8uNonPkWToq5c_xBjs-52" value="Chocolate" style="ellipse;whiteSpace=wrap;html=1;" vertex="1" parent="1">
          <mxGeometry x="170" y="530" width="110" height="30" as="geometry" />
        </mxCell>
        <mxCell id="PD8uNonPkWToq5c_xBjs-53" value="Vainilla" style="ellipse;whiteSpace=wrap;html=1;" vertex="1" parent="1">
          <mxGeometry x="325" y="600" width="110" height="30" as="geometry" />
        </mxCell>
        <mxCell id="PD8uNonPkWToq5c_xBjs-54" value="Media_luna" style="ellipse;whiteSpace=wrap;html=1;" vertex="1" parent="1">
          <mxGeometry x="460" y="540" width="110" height="30" as="geometry" />
        </mxCell>
        <mxCell id="PD8uNonPkWToq5c_xBjs-55" value="Fecha_venta" style="ellipse;whiteSpace=wrap;html=1;" vertex="1" parent="1">
          <mxGeometry x="-10" y="450" width="110" height="30" as="geometry" />
        </mxCell>
        <mxCell id="PD8uNonPkWToq5c_xBjs-57" value="Nombre" style="ellipse;whiteSpace=wrap;html=1;" vertex="1" parent="1">
          <mxGeometry x="500" y="100" width="110" height="30" as="geometry" />
        </mxCell>
        <mxCell id="PD8uNonPkWToq5c_xBjs-59" value="Id_Pastelero" style="ellipse;whiteSpace=wrap;html=1;fontStyle=4" vertex="1" parent="1">
          <mxGeometry x="500" y="-10" width="110" height="30" as="geometry" />
        </mxCell>
        <mxCell id="PD8uNonPkWToq5c_xBjs-71" value="Tiene" style="rhombus;whiteSpace=wrap;html=1;" vertex="1" parent="1">
          <mxGeometry x="95" y="-240" width="40" height="40" as="geometry" />
        </mxCell>
        <mxCell id="PD8uNonPkWToq5c_xBjs-78" value="" style="endArrow=none;html=1;rounded=0;exitX=0.446;exitY=-0.008;exitDx=0;exitDy=0;exitPerimeter=0;entryX=0.5;entryY=1;entryDx=0;entryDy=0;" edge="1" parent="1" source="PD8uNonPkWToq5c_xBjs-23" target="PD8uNonPkWToq5c_xBjs-25">
          <mxGeometry relative="1" as="geometry">
            <mxPoint x="-150" y="30" as="sourcePoint" />
            <mxPoint x="10" y="-1" as="targetPoint" />
            <Array as="points">
              <mxPoint x="-150" y="-1" />
              <mxPoint x="40" />
              <mxPoint x="40" y="-35" />
            </Array>
          </mxGeometry>
        </mxCell>
        <mxCell id="PD8uNonPkWToq5c_xBjs-79" value="M" style="resizable=0;html=1;align=left;verticalAlign=bottom;" connectable="0" vertex="1" parent="PD8uNonPkWToq5c_xBjs-78">
          <mxGeometry x="-1" relative="1" as="geometry" />
        </mxCell>
        <mxCell id="PD8uNonPkWToq5c_xBjs-80" value="1" style="resizable=0;html=1;align=right;verticalAlign=bottom;" connectable="0" vertex="1" parent="PD8uNonPkWToq5c_xBjs-78">
          <mxGeometry x="1" relative="1" as="geometry">
            <mxPoint x="-15" as="offset" />
          </mxGeometry>
        </mxCell>
        <mxCell id="PD8uNonPkWToq5c_xBjs-82" value="" style="endArrow=none;html=1;rounded=0;exitX=0.5;exitY=0;exitDx=0;exitDy=0;entryX=1.035;entryY=0.493;entryDx=0;entryDy=0;entryPerimeter=0;" edge="1" parent="1" source="PD8uNonPkWToq5c_xBjs-24" target="PD8uNonPkWToq5c_xBjs-25">
          <mxGeometry relative="1" as="geometry">
            <mxPoint x="115" y="60" as="sourcePoint" />
            <mxPoint x="115" as="targetPoint" />
            <Array as="points">
              <mxPoint x="115" y="30" />
              <mxPoint x="115" y="20" />
            </Array>
          </mxGeometry>
        </mxCell>
        <mxCell id="PD8uNonPkWToq5c_xBjs-83" value="1" style="resizable=0;html=1;align=left;verticalAlign=bottom;" connectable="0" vertex="1" parent="PD8uNonPkWToq5c_xBjs-82">
          <mxGeometry x="-1" relative="1" as="geometry" />
        </mxCell>
        <mxCell id="PD8uNonPkWToq5c_xBjs-84" value="1" style="resizable=0;html=1;align=right;verticalAlign=bottom;" connectable="0" vertex="1" parent="PD8uNonPkWToq5c_xBjs-82">
          <mxGeometry x="1" relative="1" as="geometry">
            <mxPoint x="8" y="15" as="offset" />
          </mxGeometry>
        </mxCell>
        <mxCell id="PD8uNonPkWToq5c_xBjs-86" value="" style="endArrow=none;html=1;rounded=0;entryX=0.5;entryY=0;entryDx=0;entryDy=0;exitX=0.5;exitY=0;exitDx=0;exitDy=0;" edge="1" parent="1" source="PD8uNonPkWToq5c_xBjs-19" target="PD8uNonPkWToq5c_xBjs-25">
          <mxGeometry relative="1" as="geometry">
            <mxPoint x="420" y="20" as="sourcePoint" />
            <mxPoint x="125.35000000000014" y="-8.950000000000045" as="targetPoint" />
            <Array as="points">
              <mxPoint x="380" />
              <mxPoint x="180" />
              <mxPoint x="180" y="-35" />
            </Array>
          </mxGeometry>
        </mxCell>
        <mxCell id="PD8uNonPkWToq5c_xBjs-87" value="1" style="resizable=0;html=1;align=left;verticalAlign=bottom;" connectable="0" vertex="1" parent="PD8uNonPkWToq5c_xBjs-86">
          <mxGeometry x="-1" relative="1" as="geometry" />
        </mxCell>
        <mxCell id="PD8uNonPkWToq5c_xBjs-88" value="1" style="resizable=0;html=1;align=right;verticalAlign=bottom;" connectable="0" vertex="1" parent="PD8uNonPkWToq5c_xBjs-86">
          <mxGeometry x="1" relative="1" as="geometry">
            <mxPoint x="8" y="15" as="offset" />
          </mxGeometry>
        </mxCell>
        <mxCell id="PD8uNonPkWToq5c_xBjs-89" value="" style="endArrow=none;html=1;rounded=0;entryX=0.5;entryY=1;entryDx=0;entryDy=0;exitX=0;exitY=0.5;exitDx=0;exitDy=0;" edge="1" parent="1" source="PD8uNonPkWToq5c_xBjs-25" target="PD8uNonPkWToq5c_xBjs-20">
          <mxGeometry relative="1" as="geometry">
            <mxPoint x="340" y="20" as="sourcePoint" />
            <mxPoint x="500" y="20" as="targetPoint" />
          </mxGeometry>
        </mxCell>
        <mxCell id="PD8uNonPkWToq5c_xBjs-93" value="" style="endArrow=none;html=1;rounded=0;exitX=0.5;exitY=1;exitDx=0;exitDy=0;entryX=0.5;entryY=0;entryDx=0;entryDy=0;" edge="1" parent="1" source="PD8uNonPkWToq5c_xBjs-23" target="PD8uNonPkWToq5c_xBjs-41">
          <mxGeometry relative="1" as="geometry">
            <mxPoint x="-100" y="170" as="sourcePoint" />
            <mxPoint x="-165" y="170" as="targetPoint" />
            <Array as="points" />
          </mxGeometry>
        </mxCell>
        <mxCell id="PD8uNonPkWToq5c_xBjs-96" value="" style="endArrow=none;html=1;rounded=0;entryX=0.5;entryY=1;entryDx=0;entryDy=0;exitX=0.506;exitY=-0.073;exitDx=0;exitDy=0;exitPerimeter=0;" edge="1" parent="1" source="PD8uNonPkWToq5c_xBjs-20" target="PD8uNonPkWToq5c_xBjs-71">
          <mxGeometry relative="1" as="geometry">
            <mxPoint x="202" y="-200" as="sourcePoint" />
            <mxPoint x="130" y="-200" as="targetPoint" />
            <Array as="points" />
          </mxGeometry>
        </mxCell>
        <mxCell id="PD8uNonPkWToq5c_xBjs-97" value="M" style="resizable=0;html=1;align=left;verticalAlign=bottom;" connectable="0" vertex="1" parent="PD8uNonPkWToq5c_xBjs-96">
          <mxGeometry x="-1" relative="1" as="geometry" />
        </mxCell>
        <mxCell id="PD8uNonPkWToq5c_xBjs-98" value="1" style="resizable=0;html=1;align=right;verticalAlign=bottom;" connectable="0" vertex="1" parent="PD8uNonPkWToq5c_xBjs-96">
          <mxGeometry x="1" relative="1" as="geometry">
            <mxPoint x="12" y="15" as="offset" />
          </mxGeometry>
        </mxCell>
        <mxCell id="PD8uNonPkWToq5c_xBjs-100" value="" style="endArrow=none;html=1;rounded=0;entryX=1;entryY=0.5;entryDx=0;entryDy=0;exitX=0.5;exitY=0;exitDx=0;exitDy=0;" edge="1" parent="1" source="PD8uNonPkWToq5c_xBjs-71" target="PD8uNonPkWToq5c_xBjs-26">
          <mxGeometry relative="1" as="geometry">
            <mxPoint x="94.99999999999977" y="-260.4200000000001" as="sourcePoint" />
            <mxPoint x="23.000000000000227" y="-260.4200000000001" as="targetPoint" />
            <Array as="points">
              <mxPoint x="115" y="-260" />
            </Array>
          </mxGeometry>
        </mxCell>
        <mxCell id="PD8uNonPkWToq5c_xBjs-108" value="" style="endArrow=none;html=1;rounded=0;exitX=0.5;exitY=1;exitDx=0;exitDy=0;entryX=0.5;entryY=0;entryDx=0;entryDy=0;" edge="1" parent="1" source="PD8uNonPkWToq5c_xBjs-1" target="PD8uNonPkWToq5c_xBjs-16">
          <mxGeometry relative="1" as="geometry">
            <mxPoint x="480" y="390" as="sourcePoint" />
            <mxPoint x="480" y="445" as="targetPoint" />
            <Array as="points" />
          </mxGeometry>
        </mxCell>
        <mxCell id="PD8uNonPkWToq5c_xBjs-109" value="" style="endArrow=none;html=1;rounded=0;entryX=0.5;entryY=1;entryDx=0;entryDy=0;" edge="1" parent="1" source="PD8uNonPkWToq5c_xBjs-42" target="PD8uNonPkWToq5c_xBjs-41">
          <mxGeometry relative="1" as="geometry">
            <mxPoint x="-25" y="310" as="sourcePoint" />
            <mxPoint x="-90" y="310" as="targetPoint" />
            <Array as="points" />
          </mxGeometry>
        </mxCell>
        <mxCell id="PD8uNonPkWToq5c_xBjs-110" value="M" style="resizable=0;html=1;align=left;verticalAlign=bottom;" connectable="0" vertex="1" parent="PD8uNonPkWToq5c_xBjs-109">
          <mxGeometry x="-1" relative="1" as="geometry" />
        </mxCell>
        <mxCell id="PD8uNonPkWToq5c_xBjs-111" value="1" style="resizable=0;html=1;align=right;verticalAlign=bottom;" connectable="0" vertex="1" parent="PD8uNonPkWToq5c_xBjs-109">
          <mxGeometry x="1" relative="1" as="geometry">
            <mxPoint x="8" y="15" as="offset" />
          </mxGeometry>
        </mxCell>
        <mxCell id="PD8uNonPkWToq5c_xBjs-113" value="" style="endArrow=none;html=1;rounded=0;entryX=1;entryY=0.5;entryDx=0;entryDy=0;exitX=0;exitY=0.5;exitDx=0;exitDy=0;" edge="1" parent="1" source="PD8uNonPkWToq5c_xBjs-1" target="PD8uNonPkWToq5c_xBjs-49">
          <mxGeometry relative="1" as="geometry">
            <mxPoint x="-295" y="20" as="sourcePoint" />
            <mxPoint x="-360" y="20" as="targetPoint" />
            <Array as="points">
              <mxPoint x="80" y="220" />
              <mxPoint x="80" y="380" />
            </Array>
          </mxGeometry>
        </mxCell>
        <mxCell id="PD8uNonPkWToq5c_xBjs-114" value="M" style="resizable=0;html=1;align=left;verticalAlign=bottom;" connectable="0" vertex="1" parent="PD8uNonPkWToq5c_xBjs-113">
          <mxGeometry x="-1" relative="1" as="geometry">
            <mxPoint x="-17" as="offset" />
          </mxGeometry>
        </mxCell>
        <mxCell id="PD8uNonPkWToq5c_xBjs-115" value="M" style="resizable=0;html=1;align=right;verticalAlign=bottom;" connectable="0" vertex="1" parent="PD8uNonPkWToq5c_xBjs-113">
          <mxGeometry x="1" relative="1" as="geometry">
            <mxPoint x="12" y="16" as="offset" />
          </mxGeometry>
        </mxCell>
        <mxCell id="PD8uNonPkWToq5c_xBjs-117" value="" style="endArrow=none;html=1;rounded=0;exitX=0;exitY=0.5;exitDx=0;exitDy=0;entryX=1;entryY=0.5;entryDx=0;entryDy=0;" edge="1" parent="1" source="PD8uNonPkWToq5c_xBjs-49" target="PD8uNonPkWToq5c_xBjs-42">
          <mxGeometry relative="1" as="geometry">
            <mxPoint x="-429.9999999999998" y="65" as="sourcePoint" />
            <mxPoint x="-429.9999999999998" y="120" as="targetPoint" />
            <Array as="points" />
          </mxGeometry>
        </mxCell>
        <mxCell id="PD8uNonPkWToq5c_xBjs-118" value="" style="endArrow=none;html=1;rounded=0;exitX=0.225;exitY=1.021;exitDx=0;exitDy=0;entryX=0.5;entryY=0;entryDx=0;entryDy=0;exitPerimeter=0;" edge="1" parent="1" source="PD8uNonPkWToq5c_xBjs-24" target="PD8uNonPkWToq5c_xBjs-38">
          <mxGeometry relative="1" as="geometry">
            <mxPoint x="-429.9999999999998" y="65" as="sourcePoint" />
            <mxPoint x="-429.9999999999998" y="120" as="targetPoint" />
            <Array as="points">
              <mxPoint x="90" y="90" />
              <mxPoint x="10" y="90" />
            </Array>
          </mxGeometry>
        </mxCell>
        <mxCell id="PD8uNonPkWToq5c_xBjs-119" value="" style="endArrow=none;html=1;rounded=0;exitX=0.5;exitY=0;exitDx=0;exitDy=0;entryX=0.779;entryY=0.975;entryDx=0;entryDy=0;entryPerimeter=0;" edge="1" parent="1" source="PD8uNonPkWToq5c_xBjs-39" target="PD8uNonPkWToq5c_xBjs-24">
          <mxGeometry relative="1" as="geometry">
            <mxPoint x="-430" y="65.00000000000023" as="sourcePoint" />
            <mxPoint x="-430" y="120.00000000000023" as="targetPoint" />
            <Array as="points">
              <mxPoint x="205" y="90" />
              <mxPoint x="140" y="90" />
            </Array>
          </mxGeometry>
        </mxCell>
        <mxCell id="PD8uNonPkWToq5c_xBjs-120" value="" style="endArrow=none;html=1;rounded=0;exitX=0;exitY=0.5;exitDx=0;exitDy=0;entryX=1;entryY=0.25;entryDx=0;entryDy=0;" edge="1" parent="1" source="PD8uNonPkWToq5c_xBjs-59" target="PD8uNonPkWToq5c_xBjs-19">
          <mxGeometry relative="1" as="geometry">
            <mxPoint x="-429.9999999999998" y="65" as="sourcePoint" />
            <mxPoint x="-429.9999999999998" y="120" as="targetPoint" />
            <Array as="points">
              <mxPoint x="480" y="5" />
              <mxPoint x="480" y="50" />
            </Array>
          </mxGeometry>
        </mxCell>
        <mxCell id="PD8uNonPkWToq5c_xBjs-121" value="" style="endArrow=none;html=1;rounded=0;exitX=1;exitY=0.75;exitDx=0;exitDy=0;entryX=0;entryY=0.5;entryDx=0;entryDy=0;" edge="1" parent="1" source="PD8uNonPkWToq5c_xBjs-19" target="PD8uNonPkWToq5c_xBjs-57">
          <mxGeometry relative="1" as="geometry">
            <mxPoint x="-429.9999999999998" y="65" as="sourcePoint" />
            <mxPoint x="-429.9999999999998" y="120" as="targetPoint" />
            <Array as="points">
              <mxPoint x="480" y="70" />
              <mxPoint x="480" y="115" />
            </Array>
          </mxGeometry>
        </mxCell>
        <mxCell id="PD8uNonPkWToq5c_xBjs-122" value="" style="endArrow=none;html=1;rounded=0;exitX=0.5;exitY=1;exitDx=0;exitDy=0;entryX=0.5;entryY=0;entryDx=0;entryDy=0;" edge="1" parent="1" source="PD8uNonPkWToq5c_xBjs-19" target="PD8uNonPkWToq5c_xBjs-22">
          <mxGeometry relative="1" as="geometry">
            <mxPoint x="-295" y="20" as="sourcePoint" />
            <mxPoint x="-360" y="20" as="targetPoint" />
            <Array as="points" />
          </mxGeometry>
        </mxCell>
        <mxCell id="PD8uNonPkWToq5c_xBjs-125" value="" style="endArrow=none;html=1;rounded=0;exitX=0.5;exitY=1;exitDx=0;exitDy=0;entryX=0.5;entryY=0;entryDx=0;entryDy=0;" edge="1" parent="1" source="PD8uNonPkWToq5c_xBjs-22" target="PD8uNonPkWToq5c_xBjs-1">
          <mxGeometry relative="1" as="geometry">
            <mxPoint x="-295" y="20" as="sourcePoint" />
            <mxPoint x="-360" y="20" as="targetPoint" />
            <Array as="points" />
          </mxGeometry>
        </mxCell>
        <mxCell id="PD8uNonPkWToq5c_xBjs-126" value="1" style="resizable=0;html=1;align=left;verticalAlign=bottom;" connectable="0" vertex="1" parent="PD8uNonPkWToq5c_xBjs-125">
          <mxGeometry x="-1" relative="1" as="geometry">
            <mxPoint x="2" y="14" as="offset" />
          </mxGeometry>
        </mxCell>
        <mxCell id="PD8uNonPkWToq5c_xBjs-127" value="M" style="resizable=0;html=1;align=right;verticalAlign=bottom;" connectable="0" vertex="1" parent="PD8uNonPkWToq5c_xBjs-125">
          <mxGeometry x="1" relative="1" as="geometry">
            <mxPoint x="14" y="-1" as="offset" />
          </mxGeometry>
        </mxCell>
        <mxCell id="PD8uNonPkWToq5c_xBjs-128" value="" style="endArrow=none;html=1;rounded=0;exitX=0.402;exitY=1.005;exitDx=0;exitDy=0;exitPerimeter=0;entryX=1;entryY=0.5;entryDx=0;entryDy=0;" edge="1" parent="1" source="PD8uNonPkWToq5c_xBjs-23" target="PD8uNonPkWToq5c_xBjs-36">
          <mxGeometry relative="1" as="geometry">
            <mxPoint x="-430" y="65" as="sourcePoint" />
            <mxPoint x="-154" y="180" as="targetPoint" />
            <Array as="points">
              <mxPoint x="-154" y="185" />
            </Array>
          </mxGeometry>
        </mxCell>
        <mxCell id="PD8uNonPkWToq5c_xBjs-129" value="" style="endArrow=none;html=1;rounded=0;exitX=0.25;exitY=1;exitDx=0;exitDy=0;entryX=1;entryY=0.5;entryDx=0;entryDy=0;" edge="1" parent="1" source="PD8uNonPkWToq5c_xBjs-23" target="PD8uNonPkWToq5c_xBjs-35">
          <mxGeometry relative="1" as="geometry">
            <mxPoint x="-430" y="65" as="sourcePoint" />
            <mxPoint x="-430" y="120" as="targetPoint" />
            <Array as="points">
              <mxPoint x="-167" y="135" />
            </Array>
          </mxGeometry>
        </mxCell>
        <mxCell id="PD8uNonPkWToq5c_xBjs-130" value="" style="endArrow=none;html=1;rounded=0;exitX=0.5;exitY=0;exitDx=0;exitDy=0;entryX=0.25;entryY=1;entryDx=0;entryDy=0;" edge="1" parent="1" source="PD8uNonPkWToq5c_xBjs-46" target="PD8uNonPkWToq5c_xBjs-42">
          <mxGeometry relative="1" as="geometry">
            <mxPoint x="-340" y="280" as="sourcePoint" />
            <mxPoint x="-340" y="335" as="targetPoint" />
            <Array as="points">
              <mxPoint x="-365" y="420" />
              <mxPoint x="-167" y="420" />
            </Array>
          </mxGeometry>
        </mxCell>
        <mxCell id="PD8uNonPkWToq5c_xBjs-131" value="" style="endArrow=none;html=1;rounded=0;exitX=0.5;exitY=1;exitDx=0;exitDy=0;entryX=0.5;entryY=0;entryDx=0;entryDy=0;" edge="1" parent="1" source="PD8uNonPkWToq5c_xBjs-42" target="PD8uNonPkWToq5c_xBjs-47">
          <mxGeometry relative="1" as="geometry">
            <mxPoint x="-340" y="280" as="sourcePoint" />
            <mxPoint x="-140" y="490" as="targetPoint" />
            <Array as="points" />
          </mxGeometry>
        </mxCell>
        <mxCell id="PD8uNonPkWToq5c_xBjs-132" value="" style="endArrow=none;html=1;rounded=0;exitX=0.5;exitY=0;exitDx=0;exitDy=0;" edge="1" parent="1" source="PD8uNonPkWToq5c_xBjs-55">
          <mxGeometry relative="1" as="geometry">
            <mxPoint x="-340" y="280" as="sourcePoint" />
            <mxPoint x="-120" y="400" as="targetPoint" />
            <Array as="points">
              <mxPoint x="45" y="420" />
              <mxPoint x="-120" y="420" />
            </Array>
          </mxGeometry>
        </mxCell>
        <mxCell id="PD8uNonPkWToq5c_xBjs-133" value="" style="endArrow=none;html=1;rounded=0;exitX=0;exitY=0.5;exitDx=0;exitDy=0;entryX=1;entryY=0.5;entryDx=0;entryDy=0;" edge="1" parent="1" source="PD8uNonPkWToq5c_xBjs-10" target="PD8uNonPkWToq5c_xBjs-8">
          <mxGeometry relative="1" as="geometry">
            <mxPoint x="770" y="160" as="sourcePoint" />
            <mxPoint x="705" y="160" as="targetPoint" />
            <Array as="points" />
          </mxGeometry>
        </mxCell>
        <mxCell id="PD8uNonPkWToq5c_xBjs-134" value="1" style="resizable=0;html=1;align=left;verticalAlign=bottom;" connectable="0" vertex="1" parent="PD8uNonPkWToq5c_xBjs-133">
          <mxGeometry x="-1" relative="1" as="geometry">
            <mxPoint x="-13" as="offset" />
          </mxGeometry>
        </mxCell>
        <mxCell id="PD8uNonPkWToq5c_xBjs-135" value="M" style="resizable=0;html=1;align=right;verticalAlign=bottom;" connectable="0" vertex="1" parent="PD8uNonPkWToq5c_xBjs-133">
          <mxGeometry x="1" relative="1" as="geometry">
            <mxPoint x="11" y="1" as="offset" />
          </mxGeometry>
        </mxCell>
        <mxCell id="PD8uNonPkWToq5c_xBjs-136" value="" style="endArrow=none;html=1;rounded=0;exitX=1;exitY=0.5;exitDx=0;exitDy=0;entryX=0;entryY=0.5;entryDx=0;entryDy=0;" edge="1" parent="1" source="PD8uNonPkWToq5c_xBjs-1" target="PD8uNonPkWToq5c_xBjs-8">
          <mxGeometry relative="1" as="geometry">
            <mxPoint x="660" y="120" as="sourcePoint" />
            <mxPoint x="660" y="175" as="targetPoint" />
            <Array as="points" />
          </mxGeometry>
        </mxCell>
        <mxCell id="PD8uNonPkWToq5c_xBjs-137" value="" style="endArrow=none;html=1;rounded=0;entryX=1;entryY=0.5;entryDx=0;entryDy=0;exitX=0.103;exitY=1.005;exitDx=0;exitDy=0;exitPerimeter=0;" edge="1" parent="1" source="PD8uNonPkWToq5c_xBjs-10" target="PD8uNonPkWToq5c_xBjs-12">
          <mxGeometry relative="1" as="geometry">
            <mxPoint x="660" y="120" as="sourcePoint" />
            <mxPoint x="660" y="175" as="targetPoint" />
            <Array as="points">
              <mxPoint x="820" y="275" />
            </Array>
          </mxGeometry>
        </mxCell>
        <mxCell id="PD8uNonPkWToq5c_xBjs-138" value="" style="endArrow=none;html=1;rounded=0;exitX=0.445;exitY=1.012;exitDx=0;exitDy=0;entryX=0.5;entryY=0;entryDx=0;entryDy=0;exitPerimeter=0;" edge="1" parent="1" source="PD8uNonPkWToq5c_xBjs-10" target="PD8uNonPkWToq5c_xBjs-13">
          <mxGeometry relative="1" as="geometry">
            <mxPoint x="1050" y="170" as="sourcePoint" />
            <mxPoint x="1050" y="225" as="targetPoint" />
            <Array as="points">
              <mxPoint x="850" y="290" />
              <mxPoint x="785" y="290" />
            </Array>
          </mxGeometry>
        </mxCell>
        <mxCell id="PD8uNonPkWToq5c_xBjs-139" value="" style="endArrow=none;html=1;rounded=0;exitX=0.67;exitY=1.012;exitDx=0;exitDy=0;entryX=0.5;entryY=0;entryDx=0;entryDy=0;exitPerimeter=0;" edge="1" parent="1" source="PD8uNonPkWToq5c_xBjs-10" target="PD8uNonPkWToq5c_xBjs-15">
          <mxGeometry relative="1" as="geometry">
            <mxPoint x="1060" y="180" as="sourcePoint" />
            <mxPoint x="1060" y="235" as="targetPoint" />
            <Array as="points">
              <mxPoint x="870" y="290" />
              <mxPoint x="935" y="290" />
            </Array>
          </mxGeometry>
        </mxCell>
        <mxCell id="PD8uNonPkWToq5c_xBjs-140" value="" style="endArrow=none;html=1;rounded=0;exitX=0.878;exitY=1.038;exitDx=0;exitDy=0;entryX=0;entryY=0.5;entryDx=0;entryDy=0;exitPerimeter=0;" edge="1" parent="1" source="PD8uNonPkWToq5c_xBjs-10" target="PD8uNonPkWToq5c_xBjs-14">
          <mxGeometry relative="1" as="geometry">
            <mxPoint x="1050" y="170" as="sourcePoint" />
            <mxPoint x="1050" y="225" as="targetPoint" />
            <Array as="points">
              <mxPoint x="890" y="275" />
            </Array>
          </mxGeometry>
        </mxCell>
        <mxCell id="PD8uNonPkWToq5c_xBjs-142" value="" style="endArrow=none;html=1;rounded=0;entryX=0.5;entryY=1;entryDx=0;entryDy=0;exitX=0.5;exitY=0;exitDx=0;exitDy=0;" edge="1" parent="1" source="PD8uNonPkWToq5c_xBjs-17" target="PD8uNonPkWToq5c_xBjs-16">
          <mxGeometry relative="1" as="geometry">
            <mxPoint x="575" y="440" as="sourcePoint" />
            <mxPoint x="510" y="440" as="targetPoint" />
            <Array as="points" />
          </mxGeometry>
        </mxCell>
        <mxCell id="PD8uNonPkWToq5c_xBjs-143" value="1" style="resizable=0;html=1;align=left;verticalAlign=bottom;" connectable="0" vertex="1" parent="PD8uNonPkWToq5c_xBjs-142">
          <mxGeometry x="-1" relative="1" as="geometry" />
        </mxCell>
        <mxCell id="PD8uNonPkWToq5c_xBjs-144" value="M" style="resizable=0;html=1;align=right;verticalAlign=bottom;" connectable="0" vertex="1" parent="PD8uNonPkWToq5c_xBjs-142">
          <mxGeometry x="1" relative="1" as="geometry">
            <mxPoint x="13" y="18" as="offset" />
          </mxGeometry>
        </mxCell>
        <mxCell id="PD8uNonPkWToq5c_xBjs-145" value="" style="endArrow=none;html=1;rounded=0;exitX=0.5;exitY=0;exitDx=0;exitDy=0;entryX=0.75;entryY=1;entryDx=0;entryDy=0;" edge="1" parent="1" source="PD8uNonPkWToq5c_xBjs-2" target="PD8uNonPkWToq5c_xBjs-1">
          <mxGeometry relative="1" as="geometry">
            <mxPoint x="629.9999999999995" y="490" as="sourcePoint" />
            <mxPoint x="629.9999999999995" y="435" as="targetPoint" />
            <Array as="points">
              <mxPoint x="455" y="290" />
              <mxPoint x="403" y="290" />
            </Array>
          </mxGeometry>
        </mxCell>
        <mxCell id="PD8uNonPkWToq5c_xBjs-146" value="" style="endArrow=none;html=1;rounded=0;exitX=0.5;exitY=0;exitDx=0;exitDy=0;entryX=1;entryY=0.75;entryDx=0;entryDy=0;" edge="1" parent="1" source="PD8uNonPkWToq5c_xBjs-7" target="PD8uNonPkWToq5c_xBjs-1">
          <mxGeometry relative="1" as="geometry">
            <mxPoint x="630" y="490" as="sourcePoint" />
            <mxPoint x="630" y="435" as="targetPoint" />
            <Array as="points">
              <mxPoint x="505" y="230" />
            </Array>
          </mxGeometry>
        </mxCell>
        <mxCell id="PD8uNonPkWToq5c_xBjs-147" value="" style="endArrow=none;html=1;rounded=0;exitX=0.5;exitY=0;exitDx=0;exitDy=0;entryX=0;entryY=0.75;entryDx=0;entryDy=0;" edge="1" parent="1" source="PD8uNonPkWToq5c_xBjs-6" target="PD8uNonPkWToq5c_xBjs-1">
          <mxGeometry relative="1" as="geometry">
            <mxPoint x="630" y="490" as="sourcePoint" />
            <mxPoint x="630" y="435" as="targetPoint" />
            <Array as="points">
              <mxPoint x="235" y="230" />
            </Array>
          </mxGeometry>
        </mxCell>
        <mxCell id="PD8uNonPkWToq5c_xBjs-148" value="" style="endArrow=none;html=1;rounded=0;exitX=0.545;exitY=0;exitDx=0;exitDy=0;entryX=0.285;entryY=0.994;entryDx=0;entryDy=0;exitPerimeter=0;entryPerimeter=0;" edge="1" parent="1" source="PD8uNonPkWToq5c_xBjs-4" target="PD8uNonPkWToq5c_xBjs-1">
          <mxGeometry relative="1" as="geometry">
            <mxPoint x="640" y="500" as="sourcePoint" />
            <mxPoint x="640" y="445" as="targetPoint" />
            <Array as="points">
              <mxPoint x="310" y="290" />
              <mxPoint x="360" y="290" />
            </Array>
          </mxGeometry>
        </mxCell>
        <mxCell id="PD8uNonPkWToq5c_xBjs-149" value="" style="endArrow=none;html=1;rounded=0;entryX=0.5;entryY=1;entryDx=0;entryDy=0;exitX=0.5;exitY=0;exitDx=0;exitDy=0;" edge="1" parent="1" source="PD8uNonPkWToq5c_xBjs-53" target="PD8uNonPkWToq5c_xBjs-17">
          <mxGeometry relative="1" as="geometry">
            <mxPoint x="400" y="650" as="sourcePoint" />
            <mxPoint x="650" y="455" as="targetPoint" />
            <Array as="points" />
          </mxGeometry>
        </mxCell>
        <mxCell id="PD8uNonPkWToq5c_xBjs-150" value="" style="endArrow=none;html=1;rounded=0;exitX=0.5;exitY=0;exitDx=0;exitDy=0;entryX=0.75;entryY=1;entryDx=0;entryDy=0;" edge="1" parent="1" source="PD8uNonPkWToq5c_xBjs-54" target="PD8uNonPkWToq5c_xBjs-17">
          <mxGeometry relative="1" as="geometry">
            <mxPoint x="630" y="490" as="sourcePoint" />
            <mxPoint x="630" y="435" as="targetPoint" />
            <Array as="points">
              <mxPoint x="515" y="510" />
              <mxPoint x="403" y="510" />
            </Array>
          </mxGeometry>
        </mxCell>
        <mxCell id="PD8uNonPkWToq5c_xBjs-151" value="" style="endArrow=none;html=1;rounded=0;exitX=0.5;exitY=0;exitDx=0;exitDy=0;entryX=0.25;entryY=1;entryDx=0;entryDy=0;" edge="1" parent="1" source="PD8uNonPkWToq5c_xBjs-52" target="PD8uNonPkWToq5c_xBjs-17">
          <mxGeometry relative="1" as="geometry">
            <mxPoint x="630" y="490" as="sourcePoint" />
            <mxPoint x="630" y="435" as="targetPoint" />
            <Array as="points">
              <mxPoint x="225" y="510" />
              <mxPoint x="358" y="510" />
            </Array>
          </mxGeometry>
        </mxCell>
      </root>
    </mxGraphModel>
  </diagram>
</mxfile>
